# xmcd
#
# Track frame offsets: 
#        150
#        11670
#        26655
#        38150
#        52762
#        66445
#        81665
#        92682
#        110100
#        120827
#        136342
#        150917
#        153795
#        168010
#
# Disc length: 2475 seconds
#
# Revision: 0
# Processed by: cddbd v1.5.1PL2 Copyright (c) Steve Scherf et al.
# Submitted via: ExactAudioCopy v0.90b4
#
DISCID=a309a90e
DTITLE=Richard Julian - Slow New York
DYEAR=2005
DGENRE=Blues
TTITLE0=Love Of Mine
TTITLE1=Slow New York
TTITLE2=If A Heart Breaks
TTITLE3=Don't Wait Up
TTITLE4=Cold Grey Sky
TTITLE5=Cheap Guitar
TTITLE6=A Short Biography
TTITLE7=Photograph
TTITLE8=Making Movies
TTITLE9=End Of The Line
TTITLE10=Damn
TTITLE11=Cheap Guitar (reprise)
TTITLE12=Seven Shades Of Blue
TTITLE13=On Your Own
EXTD=
EXTT0=
EXTT1=
EXTT2=
EXTT3=
EXTT4=
EXTT5=
EXTT6=
EXTT7=
EXTT8=
EXTT9=
EXTT10=
EXTT11=
EXTT12=
EXTT13=
PLAYORDER=
